<?xml version="1.0" encoding="UTF-8" standalone="no"?>
<svg width="14" height="14" fill="currentColor" class="bi bi-newspaper" viewBox="0 0 14 14" version="1.1" id="svg6" sodipodi:docname="article.svg" inkscape:version="1.1.2 (0a00cf5339, 2022-02-04)" xmlns:inkscape="http://www.inkscape.org/namespaces/inkscape" xmlns:sodipodi="http://sodipodi.sourceforge.net/DTD/sodipodi-0.dtd" xmlns="http://www.w3.org/2000/svg" xmlns:svg="http://www.w3.org/2000/svg">
  <defs id="defs10" />
  <sodipodi:namedview id="namedview8" pagecolor="#ffffff" bordercolor="#666666" borderopacity="1.0" inkscape:pageshadow="2" inkscape:pageopacity="0.0" inkscape:pagecheckerboard="0" showgrid="false" fit-margin-top="0" fit-margin-left="0" fit-margin-right="0" fit-margin-bottom="0" inkscape:zoom="32" inkscape:cx="-6.078" inkscape:cy="-3.844" inkscape:current-layer="svg6" />
  <path d="M 0,1.5 C 0,0.672 0.6716,0 1.5,0 H 12.5 C 13.33,0 14,0.672 14,1.5 L 13.98,12.2 C 13.98,13.3 13.5,13.99 12.34,13.98 L 1.497,14 C 0.6691,14 -0.0017,13.33 0,12.5 Z M 12.37,13 C 12.98,13 13.02,12.6 13.02,12.21 L 13,1.5 C 13,1.224 12.78,1 12.5,1 H 1.5 C 1.224,1 1,1.224 1,1.5 V 12.5 C 1,12.78 1.223,13 1.497,13 Z" id="path2" sodipodi:nodetypes="ssssscssssssssssss" />
  <path d="M 2,2 H 12 V 4 H 2 Z M 2,5 H 6 V 8 H 2 Z M 2,9 H 6 V 10 H 2 Z M 2,11 H 6 V 12 H 2 Z M 7,5 H 9 V 6 H 7 Z M 10,5 H 12 V 6 H 10 Z M 7,7 H 9 V 8 H 7 Z M 10,7 H 12 V 8 H 10 Z M 7,9 H 9 V 10 H 7 Z M 10,9 H 12 V 10 H 10 Z M 7,11 H 9 V 12 H 7 Z M 10,11 H 12 V 12 H 10 Z" id="path4" />
</svg>
