<?xml version="1.0" encoding="UTF-8" standalone="no"?>
<svg width="16" height="16" fill="currentColor" class="bi bi-file-earmark-code-fill" viewBox="0 0 16 16" version="1.1" id="svg4510" sodipodi:docname="homework.svg" inkscape:version="1.1.2 (0a00cf5339, 2022-02-04)" xmlns:inkscape="http://www.inkscape.org/namespaces/inkscape" xmlns:sodipodi="http://sodipodi.sourceforge.net/DTD/sodipodi-0.dtd" xmlns="http://www.w3.org/2000/svg" xmlns:svg="http://www.w3.org/2000/svg">
  <defs id="defs4514" />
  <sodipodi:namedview id="namedview4512" pagecolor="#ffffff" bordercolor="#666666" borderopacity="1.0" inkscape:pageshadow="2" inkscape:pageopacity="0.0" inkscape:pagecheckerboard="0" showgrid="false" inkscape:zoom="52.2" inkscape:cx="11.02" inkscape:cy="7.854" inkscape:current-layer="g2749" />
  <g id="g2749" transform="translate(-0.0408,0.0099)">
    <path d="M 9.293,0 H 4 C 2.895,0 2,0.8954 2,2 V 14 C 2,15.1 2.895,16 4,16 H 12 C 13.1,16 14,15.1 14,14 V 4.707 C 14,4.442 13.89,4.187 13.71,4 L 10,0.293 C 9.813,0.1055 9.558,0 9.293,0 Z" id="path2112" style="fill:#292b2c" sodipodi:nodetypes="sssssssssss" />
    <path d="M 9.496,3.496 V 1.496 L 12.5,4.496 H 10.5 C 9.944,4.496 9.496,4.048 9.496,3.496 Z" style="fill:white" id="path2335" />
    <path d="M 6.646,7.646 C 7.126,7.176 7.826,7.886 7.356,8.356 L 5.706,10.01 L 7.356,11.66 C 7.826,12.13 7.126,12.84 6.646,12.36 L 4.649,10.36 C 4.453,10.17 4.453,9.846 4.649,9.646 Z M 9.356,7.646 L 11.36,9.646 C 11.56,9.846 11.56,10.17 11.36,10.36 L 9.356,12.36 C 8.886,12.84 8.176,12.13 8.646,11.66 L 10.3,10.01 L 8.646,8.356 C 8.176,7.886 8.886,7.176 9.356,7.646 Z" style="fill:white" id="path2507" />
  </g>
</svg>
